<svg xmlns="http://www.w3.org/2000/svg" viewBox="0 0 1025 1024">
	<path fill="#252525" d="M0 0h1024v1024H0z" />
	<path
		fill="#0080ff"
		fill-rule="nonzero"
		d="M236.5 573.8q-.1-40-22.7-61.8 22.6-20.5 22.7-61.4v-99.2c0-15.5 3.2-26.3 9.6-33.3q9.5-9.8 31.9-9.8h17a12 12 0 0 0 12-12v-13.5a12 12 0 0 0-12-12h-17c-25 0-44.6 7-57.8 20.6q-20 21.2-20 60v99.2q0 22.5-9.6 32.4c-6.9 7-12.8 10.3-27.8 10.3h-.8a12 12 0 0 0-12 12v13.4a12 12 0 0 0 12 12h.8c15 0 21 3.3 27.8 9.9q9.5 10.3 9.5 33.2v98.8q.1 38.8 20 60 20.1 20.5 57.9 20.6h17a12 12 0 0 0 12-12v-13.5a12 12 0 0 0-12-12h-17q-22.4 0-31.9-9.8c-6.4-7-9.6-17.8-9.6-33.3zm281.7 65.6a12 12 0 0 0 12-12V466.6q-.1-23 10-32.8 9.6-9.8 32-9.8h28.6q22.3 0 32.3 9.8 9.6 9.8 9.6 32.8v160.8a12 12 0 0 0 12 12h12.4a12 12 0 0 0 12-12V466.6c0-25.7-6.8-45.9-20-59.5q-20.6-20.4-58.3-20.6h-28.7q-40.3-.1-60 23c-13.3-15.5-32.9-23-59.7-23h-29.2q-38.3.1-58.2 20.6c-13.2 13.6-20 33.8-20 59.5v160.8a12 12 0 0 0 12 12h12.4a12 12 0 0 0 12-12V466.6q-.2-23 10-32.8 9.4-9.8 31.8-9.8h29.2q21.7 0 31.9 9.8 9.5 9.8 9.5 32.8v160.8a12 12 0 0 0 12 12zm269.3-65.6q.1-40 22.8-61.8-22.6-20.5-22.8-61.4v-99.2c0-15.5-3.2-26.3-9.5-33.3q-9.5-9.8-32-9.8h-17a12 12 0 0 1-12-12v-13.5a12 12 0 0 1 12-12h17c25.1 0 44.7 7 58 20.6q19.8 21.2 20 60v99.2q0 22.5 9.5 32.4c6.8 7 12.8 10.3 27.8 10.3h.7a12 12 0 0 1 12 12v13.4a12 12 0 0 1-12 12h-.7c-15 0-21 3.3-27.8 9.9q-9.6 10.3-9.6 33.2v98.8q-.1 38.8-20 60c-13.2 13.6-32.8 20.6-57.8 20.6h-17.2a12 12 0 0 1-12-12v-13.5a12 12 0 0 1 12-12h17.2q22.4 0 31.9-9.8c6.3-7 9.5-17.8 9.5-33.3z"
	/>
</svg>
