<svg xmlns="http://www.w3.org/2000/svg" viewBox="0 0 1024 1024">
	<path d="M236.5 573.8q0-40-22.8-61.8 22.7-20.5 22.8-61.4v-99.2c0-15.5 3.2-26.3 9.6-33.3q9.4-9.8 31.8-9.8h17.2a12 12 0 0 0 12-12v-13.5a12 12 0 0 0-12-12h-17.2c-25 0-44.6 7-57.8 20.6q-19.9 21.2-20 60v99.2q0 22.5-9.6 32.4c-6.8 7-12.7 10.3-27.8 10.3h-.7a12 12 0 0 0-12 12v13.4a12 12 0 0 0 12 12h.7c15 0 21 3.3 27.8 9.9q9.6 10.3 9.6 33.2v98.8q.1 38.8 20 60c13.2 13.6 32.8 20.6 57.8 20.6h17.2a12 12 0 0 0 12-12v-13.5a12 12 0 0 0-12-12h-17.2q-22.4 0-31.8-9.8c-6.4-7-9.6-17.8-9.6-33.3zm281.7 65.6a12 12 0 0 0 12-12V466.6q-.1-23 10-32.8 9.5-9.8 31.9-9.8h28.7q22.3 0 32.3 9.8 9.6 9.8 9.6 32.8v160.8a12 12 0 0 0 12 12H667a12 12 0 0 0 12-12V466.6c0-25.7-6.8-45.9-20-59.5q-20.7-20.4-58.3-20.6H572q-40.3-.1-60.1 23-19.6-23.1-59.6-23h-29.2q-38.3.1-58.3 20.6c-13.2 13.6-20 33.8-20 59.5v160.8a12 12 0 0 0 12 12h12.4a12 12 0 0 0 12-12V466.6q-.1-23 10-32.8 9.5-9.8 32-9.8h29q21.8 0 32 9.8 9.5 9.8 9.5 32.8v160.8a12 12 0 0 0 12 12zm269.3-65.6q0-40 22.8-61.8-22.6-20.5-22.8-61.4v-99.2c0-15.5-3.2-26.3-9.6-33.3q-9.4-9.8-31.8-9.8h-17.2a12 12 0 0 1-12-12v-13.5a12 12 0 0 1 12-12h17.2c25 0 44.6 7 57.8 20.6q19.9 21.2 20 60v99.2q0 22.5 9.6 32.4c6.8 7 12.7 10.3 27.8 10.3h.7a12 12 0 0 1 12 12v13.4a12 12 0 0 1-12 12h-.7c-15 0-21 3.3-27.8 9.9q-9.6 10.3-9.6 33.2v98.8q-.1 38.8-20 60c-13.2 13.6-32.8 20.6-57.8 20.6h-17.2a12 12 0 0 1-12-12v-13.5a12 12 0 0 1 12-12h17.2q22.4 0 31.8-9.8c6.4-7 9.6-17.8 9.6-33.3z" />
</svg>
