<svg xmlns="http://www.w3.org/2000/svg" viewBox="0 0 1025 1024">
	<path fill="#252525" d="M0 0h1024v1024H0z" />
	<path
		fill="#0080ff"
		d="M426.6 267H398a28.6 28.6 0 0 1-28.5-28.5A28.6 28.6 0 0 1 398 210h228a28.6 28.6 0 0 1 28.5 28.5A28.6 28.6 0 0 1 626 267h-28.5v160.4L746.4 646a85.5 85.5 0 0 1-70.7 133.6H348.4A85.4 85.4 0 0 1 277.7 646l148.9-218.7zm114 0h-57v160.4a57 57 0 0 1-10 32L324.9 678.2a28.5 28.5 0 0 0 23.6 44.5h327.3a28.6 28.6 0 0 0 23.6-44.5l-149-218.8a57 57 0 0 1-9.8-32z"
	/>
</svg>
