<svg xmlns="http://www.w3.org/2000/svg" viewBox="0 0 1024 1024">
	<path
		fill="#0080ff"
		d="M328 220.3a60.6 60.6 0 0 0-60.3 60.4v452.5a60.6 60.6 0 0 0 60.3 60.3h90.5v-60.3H328V280.7h362v120.6h60.4V280.7a60.6 60.6 0 0 0-60.4-60.4zm90.5 150.9a30.3 30.3 0 0 0-30.1 30.1 30.3 30.3 0 0 0 30.1 30.2h120.7a30.3 30.3 0 0 0 30.2-30.2 30.3 30.3 0 0 0-30.2-30.1zm239.8 115a90.5 90.5 0 0 1 128 128L615.7 784.7a30 30 0 0 1-21.4 8.8H509a30.3 30.3 0 0 1-30.2-30.1V678c0-8 3.2-15.7 8.9-21.3zm85.3 42.6a30.3 30.3 0 0 0-42.6 0l42.6 42.7a30 30 0 0 0 0-42.7M701 614l-42.7-42.6-119.1 119.1v42.7h42.6z"
	/>
</svg>
