<svg xmlns="http://www.w3.org/2000/svg" viewBox="0 0 1024 1024">
	<path
		fill="#0080ff"
		d="M512 253.9c15.7 0 28.7 13 28.7 28.7v28.7h229.6c15.8 0 28.7 13 28.7 28.7s-13 28.7-28.7 28.7V627c15.8 0 28.7 13 28.7 28.7s-13 28.7-28.7 28.7H638.7l37.1 37.1a28.7 28.7 0 0 1-40.6 40.6l-77.7-77.7h-91L388.8 762a28.7 28.7 0 0 1-40.6-40.6l37.1-37.1H253.7c-15.8 0-28.7-13-28.7-28.7 0-15.8 13-28.7 28.7-28.7V368.7c-15.8 0-28.7-13-28.7-28.7 0-15.8 13-28.7 28.7-28.7h229.6v-28.7c0-15.8 13-28.7 28.7-28.7m201 373V368.8H311V627z"
	/>
</svg>
