<svg xmlns="http://www.w3.org/2000/svg" viewBox="0 0 32 32" width="32" height="32">
	<path fill="yellow" d="M12.736 12.959H7.802l3.992 8.123-2.944 1.493-4.227-8.634-3.359 3.276V1.425l11.472 11.534Z" />
	<path fill="olive" d="M5.63 12.959h7.106L1.264 1.425 5.63 12.959Z" />
	<path fill="olive" d="m8.318 21.743 2.052-1.04-3.814-7.759h1.291l3.856 8.203-2.984 1.416-.4-.82Z" />
	<path
		d="m.764.213 13.175 13.246H8.605l3.856 7.845-3.837 1.946-4.146-8.469-3.714 3.622V.213Zm4.663 12.246h6.107l-9.77-9.822v13.394l3.663-3.572Zm-.196 1.588L9.076 21.9l2.052-1.041-3.638-7.4H5.833l-.602.588Z"
	/>
</svg>
