<svg
	xmlns="http://www.w3.org/2000/svg"
	xml:space="preserve"
	fill-rule="evenodd"
	stroke-linecap="round"
	stroke-linejoin="round"
	stroke-miterlimit="1.5"
	clip-rule="evenodd"
	viewBox="0 0 32 32"
	width="32"
	height="32"
>
	<path
		fill="#fff"
		d="M14.305 8.323s0-1.338 1.338-1.338 1.338 1.338 1.338 1.338v6.356s.669 6.69-6.02 6.69c0 0-2.461.13-4.683-2.007L1.595 14.01s-1.338-1.338 0-2.676c0 0 1.003-1.004 2.676.669l1.161 1.161a.496.496 0 0 0 .846-.35V1.968S6.278.63 7.616.63s1.338 1.338 1.338 1.338v5.017s0-1.338 1.338-1.338 1.338 1.338 1.338 1.338v.669s0-1.338 1.337-1.338c1.338 0 1.338 1.338 1.338 1.338v.669Z"
	/>
	<path
		fill="#666"
		d="m12.43 6.817.837-.837c1 .45 1 1.675 1 1.675V11h-1V7.655s0-.838-.838-.838Zm-2.711-.669.838-.837c1 .45 1 1.675 1 1.675V11h-1V6.986s0-.838-.838-.838Zm-8.168 5.394.912-.755c.351.169.74.441 1.162.862l1.153 1.154.624.79a.99.99 0 0 1-.507.21l-.284-.007-.282-.095a1.025 1.025 0 0 1-.251-.183l-1.161-1.161c-.554-.555-1.007-.775-1.366-.815Z"
	/>
	<path
		fill="#666"
		d="M10.514 20.869c1.843 0 3.083-.536 3.908-1.31 1.93-1.809 1.614-4.83 1.614-4.83l-.002-.025V8.323s0-.838-.838-.838l1.357-.456c.481.542.481 1.294.481 1.294v6.325c.022.282.24 3.608-1.928 5.641-.97.91-2.416 1.578-4.574 1.58M7.066 1.13 8.119.411c.785.515.785 1.557.785 1.557v9.031h-1V1.968s0-.838-.838-.838Z"
	/>
	<path
		d="M1.265 10.958c.063-.058.407-.361.995-.415.549-.05 1.367.109 2.365 1.106l1.153 1.154V1.968S5.778.13 7.616.13s1.838 1.838 1.838 1.838v9.031h-1V1.968s0-.838-.838-.838-.838.838-.838.838v10.846c0 .109-.017.212-.047.307l-.133.266-.196.206a.99.99 0 0 1-.507.21l-.284-.007-.282-.095a1.025 1.025 0 0 1-.251-.183l-1.161-1.161c-.554-.555-1.007-.775-1.366-.815-.383-.043-.602.145-.602.146-.985.984 0 1.968 0 1.968l.011.012 4.682 5.351c2.044 1.952 4.293 1.851 4.293 1.851l.013-.001h.013c1.843 0 3.083-.536 3.908-1.31 1.93-1.809 1.614-4.83 1.614-4.83l-.002-.025V8.323s0-.838-.838-.838-.838.838-.838.838v2.676h-1V8.323s0-1.838 1.838-1.838 1.838 1.838 1.838 1.838l-.001 6.325c.023.282.241 3.608-1.927 5.641-.971.91-2.416 1.578-4.574 1.58-.168.007-2.732.081-5.048-2.147l-.015-.015-4.685-5.354c-.139-.147-1.603-1.76.01-3.373l.024-.022Z"
	/>
	<path
		fill="#404040"
		d="M1.949 11.688c-.985.984 0 1.968 0 1.968l.011.012 4.682 5.351c2.044 1.952 4.293 1.851 4.293 1.851l.044.999c-.168.007-2.732.081-5.048-2.147l-.015-.015-4.685-5.354c-.139-.147-1.603-1.76.01-3.373l.708.708ZM7.616 1.13c-.838 0-.838.838-.838.838v10.846c0 .109-.017.212-.047.307l-.133.266-.196.206-.624-.79V1.968S5.778.13 7.616.13v1Z"
	/>
	<path d="M12.13 10.999h-1V7.654s0-1.838 1.837-1.838c1.838 0 1.838 1.838 1.838 1.838v3.345h-1V7.654s0-.838-.838-.838c-.837 0-.837.838-.837.838v3.345Z" />
	<path d="M9.454 10.999h-1V6.985s0-1.838 1.838-1.838 1.838 1.838 1.838 1.838v4.014h-1V6.985s0-.838-.838-.838-.838.838-.838.838v4.014Z" />
	<path
		fill="navy"
		stroke="#000"
		d="M16 22.485v3.03c0 .82-.732 1.485-1.633 1.485H6.633C5.732 27 5 26.335 5 25.515v-3.03C5 21.665 5.732 21 6.633 21h7.734c.901 0 1.633.665 1.633 1.485Z"
		transform="matrix(.9091 0 0 1 1.455 0)"
	/>
	<path
		fill="#00f"
		stroke="navy"
		stroke-width="1.3"
		d="M16 21.742v4.516c0 .409-1.22.742-2.722.742H7.722C6.22 27 5 26.667 5 26.258v-4.516C5 21.333 6.22 21 7.722 21h5.556c1.502 0 2.722.333 2.722.742Z"
		transform="matrix(.27273 0 0 1 4.636 0)"
	/>
</svg>
