<svg xmlns="http://www.w3.org/2000/svg" viewBox="0 0 32 32" width="32" height="32">
	<path
		fill="#fff"
		d="M14.305 8.323s0-1.338 1.338-1.338 1.338 1.338 1.338 1.338v6.356s.669 6.69-6.02 6.69c0 0-2.461.13-4.683-2.007L1.595 14.01s-1.338-1.338 0-2.676c0 0 1.003-1.004 2.676.669l1.161 1.161a.496.496 0 0 0 .846-.35V1.968S6.278.63 7.616.63s1.338 1.338 1.338 1.338v5.017s0-1.338 1.338-1.338 1.338 1.338 1.338 1.338v.669s0-1.338 1.337-1.338c1.338 0 1.338 1.338 1.338 1.338v.669Z"
	/>
	<path
		d="M1.265 10.958c.063-.058.407-.361.995-.415.549-.05 1.367.109 2.365 1.106l1.153 1.154V1.968S5.778.13 7.616.13s1.838 1.838 1.838 1.838v9.031h-1V1.968s0-.838-.838-.838-.838.838-.838.838v10.846c0 .109-.017.212-.047.307l-.133.266-.196.206a.99.99 0 0 1-.507.21l-.284-.007-.282-.095a1.025 1.025 0 0 1-.251-.183l-1.161-1.161c-.554-.555-1.007-.775-1.366-.815-.383-.043-.602.145-.602.146-.985.984 0 1.968 0 1.968l.011.012 4.682 5.351c2.044 1.952 4.293 1.851 4.293 1.851l.013-.001h.013c1.843 0 3.083-.536 3.908-1.31 1.93-1.809 1.614-4.83 1.614-4.83l-.002-.025V8.323s0-.838-.838-.838-.838.838-.838.838v2.676h-1V8.323s0-1.838 1.838-1.838 1.838 1.838 1.838 1.838l-.001 6.325c.023.282.241 3.608-1.927 5.641-.971.91-2.416 1.578-4.574 1.58-.168.007-2.732.081-5.048-2.147l-.015-.015-4.685-5.354c-.139-.147-1.603-1.76.01-3.373l.024-.022Z"
	/>
	<path d="M12.13 10.999h-1V7.654s0-1.838 1.837-1.838c1.838 0 1.838 1.838 1.838 1.838v3.345h-1V7.654s0-.838-.838-.838c-.837 0-.837.838-.837.838v3.345Z" />
	<path d="M9.454 10.999h-1V6.985s0-1.838 1.838-1.838 1.838 1.838 1.838 1.838v4.014h-1V6.985s0-.838-.838-.838-.838.838-.838.838v4.014Z" />
	<rect
		x="6"
		y="21"
		width="10"
		height="6"
		rx="2"
		fill="navy"
		stroke="black"
	/>
	<rect
		x="6.5"
		y="21.5"
		width="3.5"
		height="5"
		rx="1.5"
		fill="blue"
	/>
</svg>
