<svg xmlns="http://www.w3.org/2000/svg" viewBox="0 0 36 20" width="36" height="20">
	<symbol id="baseline-status-high">
		<g fill="var(--baseline-high-color)">
			<path d="M18 8L20 10L18 12L16 10L18 8Z" />
			<path d="M26 0L28 2L10 20L0 10L2 8L10 16L26 0Z" />
		</g>
		<g fill="var(--baseline-high-bg)">
			<path d="M28 2L26 4L32 10L26 16L22 12L20 14L26 20L36 10L28 2Z" />
			<path d="M10 0L2 8L4 10L10 4L14 8L16 6L10 0Z" />
		</g>
	</symbol>
	<symbol id="baseline-status-low">
		<path
			fill="var(--baseline-low-bg)"
			d="m10 0 2 2-2 2-2-2 2-2Zm4 4 2 2-2 2-2-2 2-2Zm16 0 2 2-2 2-2-2 2-2Zm4 4 2 2-2 2-2-2 2-2Zm-4 4 2 2-2 2-2-2 2-2Zm-4 4 2 2-2 2-2-2 2-2Zm-4-4 2 2-2 2-2-2 2-2ZM6 4l2 2-2 2-2-2 2-2Z"
		/>
		<path fill="var(--baseline-low-color)" d="m26 0 2 2-18 18L0 10l2-2 8 8L26 0Z" />
	</symbol>
	<symbol id="baseline-status-false">
		<g fill="var(--baseline-limited-color)">
			<path d="M10 0L16 6L14 8L8 2L10 0Z" />
			<path d="M22 12L20 14L26 20L28 18L22 12Z" />
			<path d="M26 0L28 2L10 20L8 18L26 0Z" />
		</g>
		<g fill="var(--baseline-limited-bg)">
			<path d="M8 2L10 4L4 10L10 16L8 18L0 10L8 2Z" />
			<path d="M28 2L36 10L28 18L26 16L32 10L26 4L28 2Z" />
		</g>
	</symbol>
	<symbol id="baseline-status-no-data">
		<g fill="var(--baseline-no-data-color)">
			<path d="M18 8L20 10L18 12L16 10L18 8Z" />
			<path d="M28 2L26 4L32 10L26 16L22 12L20 14L26 20L36 10L28 2Z" />
			<path d="M10 0L2 8L4 10L10 4L14 8L16 6L10 0Z" />
			<path d="M26 0L28 2L10 20L0 10L2 8L10 16L26 0Z" />
		</g>
	</symbol>
</svg>
