<svg viewBox="0 0 24 24" width="24" height="24">
	<symbol id="browser-status-supported">
		<path fill="currentColor" d="M18.71 7.21a1 1 0 0 0-1.42 0l-7.45 7.46l-3.13-3.14A1 1 0 1 0 5.29 13l3.84 3.84a1 1 0 0 0 1.42 0l8.16-8.16a1 1 0 0 0 0-1.47" />
	</symbol>
	<symbol id="browser-status-unsupported">
		<path fill="currentColor" d="m13.41 12l4.3-4.29a1 1 0 1 0-1.42-1.42L12 10.59l-4.29-4.3a1 1 0 0 0-1.42 1.42l4.3 4.29l-4.3 4.29a1 1 0 0 0 0 1.42a1 1 0 0 0 1.42 0l4.29-4.3l4.29 4.3a1 1 0 0 0 1.42 0a1 1 0 0 0 0-1.42Z" />
	</symbol>
</svg>
